# Blender v2.79 (sub 0) OBJ File: ''
# www.blender.org
mtllib jackInTheBoxHandle.mtl
o Cube_Cube.002
v -0.100000 -0.100000 0.100000
v -0.100000 0.100000 0.100000
v -0.100000 -0.100000 -0.900000
v -0.100000 0.100000 -0.900000
v 0.100000 -0.100000 0.100000
v 0.100000 0.100000 0.100000
v 0.100000 -0.100000 -0.900000
v 0.100000 0.100000 -0.900000
v -0.100000 0.100000 -1.100000
v -0.100000 -0.100000 -1.100000
v 0.100000 -0.100000 -1.100000
v 0.100000 0.100000 -1.100000
v -0.100000 0.700000 -0.900000
v 0.100000 0.700000 -0.900000
v -0.100000 0.700000 -1.100000
v 0.100000 0.700000 -1.100000
v -0.100000 0.900000 -0.900000
v 0.100000 0.900000 -0.900000
v -0.100000 0.900000 -1.100000
v 0.100000 0.900000 -1.100000
v -0.100000 0.700000 -1.900000
v 0.100000 0.700000 -1.900000
v -0.100000 0.900000 -1.900000
v 0.100000 0.900000 -1.900000
vn -1.0000 0.0000 0.0000
vn 0.0000 0.0000 1.0000
vn 1.0000 0.0000 0.0000
vn 0.0000 -1.0000 0.0000
vn 0.0000 1.0000 0.0000
vn 0.0000 0.0000 -1.0000
usemtl None
s off
f 1//1 2//1 4//1 3//1
f 4//2 8//2 14//2 13//2
f 7//3 8//3 6//3 5//3
f 5//2 6//2 2//2 1//2
f 3//4 7//4 5//4 1//4
f 8//5 4//5 2//5 6//5
f 10//6 9//6 12//6 11//6
f 3//1 4//1 9//1 10//1
f 8//3 7//3 11//3 12//3
f 7//4 3//4 10//4 11//4
f 14//3 16//3 20//3 18//3
f 8//3 12//3 16//3 14//3
f 12//6 9//6 15//6 16//6
f 9//1 4//1 13//1 15//1
f 17//5 18//5 20//5 19//5
f 13//2 14//2 18//2 17//2
f 15//1 13//1 17//1 19//1
f 19//5 20//5 24//5 23//5
f 22//6 21//6 23//6 24//6
f 16//4 15//4 21//4 22//4
f 20//3 16//3 22//3 24//3
f 15//1 19//1 23//1 21//1
