# Blender v2.79 (sub 0) OBJ File: ''
# www.blender.org
mtllib remote.mtl
o Cube_Cube.001
v -1.941833 -0.086515 0.871859
v -1.891833 0.213485 0.821859
v -1.941833 -0.086515 -0.674948
v -1.941833 0.213485 -0.674948
v 1.823743 -0.086515 0.871859
v 1.823743 0.213485 0.871859
v 1.823743 -0.086515 -0.674948
v 1.823743 0.213485 -0.674948
v -1.891833 0.213485 0.148456
v -0.059045 0.213485 -0.674948
v 1.823743 0.213485 0.098456
v -0.049045 0.213485 0.861860
v 0.040955 0.213485 0.098456
v -1.941833 0.213485 -0.288246
v 0.882349 0.213485 -0.674948
v 1.823743 0.213485 0.485158
v -1.050439 0.213485 0.821859
v -1.891833 0.213485 0.485158
v -0.990439 0.213485 -0.664948
v 1.823743 0.213485 -0.288246
v 0.872349 0.213485 0.861860
v 0.040955 0.213485 0.385158
v 0.040955 0.213485 -0.188246
v 0.892349 0.213485 0.098456
v -1.050439 0.213485 0.148456
v -0.990439 0.213485 -0.278246
v 0.782349 0.213485 -0.188246
v 0.782349 0.213485 0.385158
v -1.050439 0.213485 0.485158
v -1.941833 0.213485 -0.481597
v 1.353046 0.213485 -0.674948
v 1.823743 0.213485 0.678509
v -1.471136 0.213485 0.821859
v -1.891833 0.213485 0.291807
v -0.539742 0.213485 -0.664948
v 1.823743 0.213485 -0.094895
v 0.411652 0.213485 0.861860
v -0.049045 0.213485 0.678509
v 0.040955 0.213485 -0.094895
v 1.343046 0.213485 0.098456
v -0.539742 0.213485 0.108456
v -1.941833 0.213485 -0.094895
v 0.411652 0.213485 -0.674948
v 1.823743 0.213485 0.291807
v -0.539742 0.213485 0.861860
v -1.891833 0.213485 0.678509
v -1.471136 0.213485 -0.674948
v 1.823743 0.213485 -0.481597
v 1.353046 0.213485 0.871859
v 0.040955 0.213485 0.291807
v -0.059045 0.213485 -0.481597
v -1.471136 0.213485 0.148456
v -0.990439 0.213485 -0.084895
v -0.990439 0.213485 -0.471597
v -0.539742 0.213485 -0.278246
v -1.471136 0.213485 -0.288246
v 0.782349 0.213485 -0.094895
v 0.882349 0.213485 -0.481597
v 1.343046 0.213485 -0.278246
v 0.411652 0.213485 -0.188246
v 0.872349 0.213485 0.678509
v 0.782349 0.213485 0.291807
v 1.343046 0.213485 0.475158
v 0.411652 0.213485 0.385158
v -1.050439 0.213485 0.678509
v -1.050439 0.213485 0.291807
v -0.539742 0.213485 0.495158
v -0.539742 0.213485 0.301807
v -0.539742 0.213485 0.688509
v 1.343046 0.213485 0.291807
v 1.353046 0.213485 0.678509
v 1.353046 0.213485 -0.481597
v 1.343046 0.213485 -0.094895
v -1.471136 0.213485 -0.481597
v -0.539742 0.213485 -0.471597
v -0.539742 0.213485 -0.084895
v -1.471136 0.213485 -0.094895
v -1.471136 0.213485 0.871859
v -1.941833 0.213485 0.871859
v -1.941833 0.213485 0.291807
v -1.941833 0.213485 0.098456
v -1.941833 0.213485 0.678509
v -1.941833 0.213485 0.485158
v -1.471136 0.213485 0.098456
v -0.990439 0.213485 0.108456
v -0.990439 0.213485 0.688509
v -0.990439 0.213485 0.861860
v -0.990439 0.213485 0.301807
v -0.990439 0.213485 0.495158
v -1.471136 0.223485 0.485158
v -1.050439 0.223485 0.485158
v -1.891833 0.223485 0.485158
v -1.471136 0.223485 0.291807
v -1.471136 0.223485 0.148456
v -1.050439 0.223485 0.291807
v -1.891833 0.223485 0.291807
v -1.471136 0.223485 0.678509
v -1.471136 0.223485 0.821859
v -1.050439 0.223485 0.678509
v -1.891833 0.223485 0.678509
v -1.891833 0.223485 0.821859
v -1.891833 0.223485 0.148456
v -1.050439 0.223485 0.148456
v -1.050439 0.223485 0.821859
v -0.529742 0.213485 0.871859
v -1.000439 0.213485 0.871859
v -0.990439 0.213485 0.668509
v -0.539742 0.213485 0.668509
v -0.990439 0.213485 0.475158
v -1.000439 0.213485 0.678509
v -0.539742 0.213485 0.475158
v -0.529742 0.213485 0.678509
v -0.990439 0.213485 0.281807
v -1.000439 0.213485 0.485158
v -0.519742 0.213485 0.475158
v -0.539742 0.213485 0.281807
v -0.990439 0.213485 0.088456
v -0.539742 0.213485 0.088456
v -1.000439 0.213485 0.291807
v -0.519742 0.213485 0.291807
v -0.990439 0.213485 -0.104895
v -1.000439 0.213485 0.098456
v -0.529742 0.213485 0.098456
v -0.539742 0.213485 -0.104895
v -0.990439 0.213485 -0.298246
v -1.000439 0.213485 -0.094895
v -0.539742 0.213485 -0.298246
v -0.519742 0.213485 -0.094895
v -0.990439 0.213485 -0.491597
v -1.000439 0.213485 -0.288246
v -0.519742 0.213485 -0.278246
v -0.539742 0.213485 -0.491597
v -1.000439 0.213485 -0.674948
v -0.529742 0.213485 -0.674948
v -1.000439 0.213485 -0.481597
v -0.529742 0.213485 -0.481597
v -0.539742 0.223485 0.861860
v -0.990439 0.223485 0.861860
v -0.990439 0.223485 0.688509
v -0.539742 0.223485 0.688509
v -0.990439 0.223485 0.495158
v -0.990439 0.223485 0.668509
v -0.539742 0.223485 0.495158
v -0.539742 0.223485 0.668509
v -0.990439 0.223485 0.301807
v -0.990439 0.223485 0.475158
v -0.539742 0.223485 0.475158
v -0.539742 0.223485 0.301807
v -0.990439 0.223485 0.108456
v -0.539742 0.223485 0.108456
v -0.990439 0.223485 0.281807
v -0.539742 0.223485 0.281807
v -0.990439 0.223485 -0.084895
v -0.990439 0.223485 0.088456
v -0.539742 0.223485 0.088456
v -0.539742 0.223485 -0.084895
v -0.990439 0.223485 -0.278246
v -0.990439 0.223485 -0.104895
v -0.539742 0.223485 -0.278246
v -0.539742 0.223485 -0.104895
v -0.990439 0.223485 -0.471597
v -0.990439 0.223485 -0.298246
v -0.539742 0.223485 -0.298246
v -0.539742 0.223485 -0.471597
v -0.990439 0.223485 -0.664948
v -0.539742 0.223485 -0.664948
v -0.990439 0.223485 -0.491597
v -0.539742 0.223485 -0.491597
v -0.069045 0.213485 -0.094895
v -0.069045 0.213485 0.098456
v -0.069045 0.213485 0.291807
v -0.069045 0.213485 0.475158
v 0.892349 0.213485 -0.094895
v 0.782349 0.213485 0.098456
v 0.411652 0.213485 -0.288246
v 0.892349 0.213485 -0.278246
v 0.892349 0.213485 0.291807
v 0.872349 0.213485 0.495158
v 0.411652 0.213485 0.495158
v -0.069045 0.213485 -0.278246
v 0.411652 0.223485 0.098456
v 0.782349 0.223485 0.098456
v 0.040955 0.223485 0.098456
v 0.411652 0.223485 0.291807
v 0.411652 0.223485 0.385158
v 0.782349 0.223485 0.291807
v 0.040955 0.223485 0.291807
v 0.411652 0.223485 -0.094895
v 0.411652 0.223485 -0.188246
v 0.782349 0.223485 -0.094895
v 0.040955 0.223485 -0.094895
v 0.040955 0.223485 0.385158
v 0.782349 0.223485 -0.188246
v 0.782349 0.223485 0.385158
v 0.040955 0.223485 -0.188246
v -0.059045 0.213485 -0.094895
v -0.059045 0.213485 0.098456
v -0.059045 0.213485 0.291807
v -0.049045 0.213485 0.495158
v -0.529742 0.213485 -0.288246
v -0.059045 0.213485 -0.288246
v -0.529742 0.213485 0.485158
v -0.529742 0.213485 0.291807
v -0.519742 0.213485 0.098456
v -0.529742 0.213485 -0.094895
v -0.519742 0.213485 0.098456
v -0.069045 0.213485 0.098456
v -0.519742 0.213485 0.291807
v -0.069045 0.213485 0.291807
v -0.519742 0.213485 -0.094895
v -0.069045 0.213485 -0.094895
v -0.069045 0.213485 0.475158
v -0.519742 0.213485 -0.278246
v -0.069045 0.213485 -0.278246
v -0.519742 0.213485 0.475158
v -0.519742 0.223485 0.098456
v -0.069045 0.223485 0.098456
v -0.519742 0.223485 0.291807
v -0.069045 0.223485 0.291807
v -0.519742 0.223485 -0.094895
v -0.069045 0.223485 -0.094895
v -0.069045 0.223485 0.475158
v -0.519742 0.223485 -0.278246
v -0.069045 0.223485 -0.278246
v -0.519742 0.223485 0.475158
v 0.411652 0.213485 0.871859
v -0.059045 0.213485 0.871859
v -0.059045 0.213485 0.678509
v 0.882349 0.213485 0.678509
v 0.882349 0.213485 0.871859
v 0.411652 0.213485 0.485158
v 0.892349 0.213485 0.475158
v -0.059045 0.213485 0.485158
v 0.411652 0.223485 0.678509
v 0.411652 0.223485 0.861860
v 0.411652 0.223485 0.495158
v 0.872349 0.223485 0.678509
v -0.049045 0.223485 0.678509
v -0.049045 0.223485 0.861860
v 0.872349 0.223485 0.861860
v 0.872349 0.223485 0.495158
v -0.049045 0.223485 0.495158
v 0.411652 0.223485 -0.674948
v 0.882349 0.223485 -0.674948
v -0.059045 0.223485 -0.481597
v -0.059045 0.223485 -0.288246
v 0.882349 0.223485 -0.481597
v 0.882349 0.223485 -0.288246
v 0.411652 0.223485 -0.288246
v -0.059045 0.223485 -0.674948
v 0.411652 0.223485 -0.481597
v 0.882349 0.213485 -0.094895
v 0.882349 0.213485 0.098456
v 0.882349 0.213485 0.291807
v 0.882349 0.213485 0.485158
v 0.882349 0.213485 -0.288246
v 1.353046 0.213485 -0.288246
v 1.353046 0.213485 0.485158
v 1.353046 0.213485 0.291807
v 1.353046 0.213485 0.098456
v 1.353046 0.213485 -0.094895
v 0.892349 0.223485 0.098456
v 1.343046 0.223485 0.098456
v 0.892349 0.223485 0.291807
v 1.343046 0.223485 0.291807
v 0.892349 0.223485 -0.094895
v 1.343046 0.223485 -0.094895
v 0.892349 0.223485 0.475158
v 0.892349 0.223485 -0.278246
v 1.343046 0.223485 -0.278246
v 1.343046 0.223485 0.475158
vn -1.0000 0.0000 0.0000
vn 0.0000 0.0000 -1.0000
vn 1.0000 0.0000 0.0000
vn 0.0000 0.0000 1.0000
vn 0.0000 -1.0000 0.0000
vn 0.0000 1.0000 0.0000
usemtl None
s off
f 1//1 79//1 82//1 83//1 80//1 81//1 42//1 14//1 30//1 4//1 3//1
f 3//2 4//2 47//2 133//2 134//2 10//2 43//2 15//2 31//2 8//2 7//2
f 7//3 8//3 48//3 20//3 36//3 11//3 44//3 16//3 32//3 6//3 5//3
f 5//4 6//4 49//4 230//4 226//4 227//4 105//4 106//4 78//4 79//4 1//4
f 3//5 7//5 5//5 1//5
f 46//1 2//1 101//1 100//1
f 12//4 37//4 235//4 239//4
f 23//1 39//1 191//1 195//1
f 77//6 42//6 81//6 84//6
f 117//4 118//4 155//4 154//4
f 68//2 88//2 145//2 148//2
f 74//6 30//6 14//6 56//6
f 176//1 173//1 266//1 269//1
f 72//6 58//6 256//6 257//6
f 10//1 51//1 245//1 250//1
f 71//6 229//6 230//6 49//6
f 232//4 63//4 271//4 268//4
f 60//2 23//2 195//2 189//2
f 129//4 132//4 168//4 167//4
f 53//1 117//1 154//1 153//1
f 9//1 34//1 96//1 102//1
f 66//3 25//3 103//3 95//3
f 17//3 65//3 99//3 104//3
f 34//1 18//1 92//1 96//1
f 172//4 171//4 209//4 212//4
f 169//4 180//4 214//4 211//4
f 111//3 68//3 148//3 147//3
f 228//6 112//6 105//6 227//6
f 233//6 202//6 112//6 228//6
f 132//3 35//3 166//3 168//3
f 174//3 57//3 190//3 182//3
f 64//4 28//4 194//4 185//4
f 57//3 27//3 193//3 190//3
f 44//6 259//6 258//6 16//6
f 11//6 260//6 259//6 44//6
f 40//3 73//3 267//3 263//3
f 32//6 71//6 49//6 6//6
f 16//6 258//6 71//6 32//6
f 258//6 255//6 229//6 71//6
f 51//1 201//1 246//1 245//1
f 58//3 15//3 244//3 247//3
f 201//4 175//4 249//4 246//4
f 48//6 72//6 257//6 20//6
f 8//6 31//6 72//6 48//6
f 31//6 15//6 58//6 72//6
f 36//6 261//6 260//6 11//6
f 20//6 257//6 261//6 36//6
f 177//1 232//1 268//1 264//1
f 135//6 74//6 56//6 130//6
f 133//6 47//6 74//6 135//6
f 47//6 4//6 30//6 74//6
f 51//6 136//6 200//6 201//6
f 10//6 134//6 136//6 51//6
f 109//4 111//4 147//4 146//4
f 204//4 120//4 208//4 206//4
f 170//4 169//4 211//4 207//4
f 19//1 129//1 167//1 165//1
f 126//6 77//6 84//6 122//6
f 130//6 56//6 77//6 126//6
f 56//6 14//6 42//6 77//6
f 50//1 22//1 192//1 187//1
f 22//4 64//4 185//4 192//4
f 28//3 62//3 186//3 194//3
f 21//3 61//3 237//3 240//3
f 37//4 21//4 240//4 235//4
f 61//3 178//3 241//3 237//3
f 2//4 33//4 98//4 101//4
f 65//3 29//3 91//3 99//3
f 25//2 52//2 94//2 103//2
f 33//6 2//6 79//6 78//6
f 34//6 9//6 81//6 80//6
f 46//6 18//6 83//6 82//6
f 52//6 25//6 122//6 84//6
f 65//6 17//6 106//6 110//6
f 66//6 29//6 114//6 119//6
f 17//6 33//6 78//6 106//6
f 18//6 34//6 80//6 83//6
f 2//6 46//6 82//6 79//6
f 9//6 52//6 84//6 81//6
f 29//6 65//6 110//6 114//6
f 25//6 66//6 119//6 122//6
f 97//6 100//6 101//6 98//6
f 93//6 96//6 92//6 90//6
f 95//6 93//6 90//6 91//6
f 103//6 94//6 93//6 95//6
f 94//6 102//6 96//6 93//6
f 99//6 97//6 98//6 104//6
f 91//6 90//6 97//6 99//6
f 90//6 92//6 100//6 97//6
f 29//3 66//3 95//3 91//3
f 18//1 46//1 100//1 92//1
f 52//2 9//2 102//2 94//2
f 33//4 17//4 104//4 98//4
f 45//6 87//6 106//6 105//6
f 87//6 86//6 110//6 106//6
f 69//6 45//6 105//6 112//6
f 86//6 69//6 112//6 110//6
f 107//6 89//6 114//6 110//6
f 89//6 67//6 202//6 114//6
f 67//6 108//6 112//6 202//6
f 108//6 107//6 110//6 112//6
f 109//6 88//6 119//6 114//6
f 111//6 109//6 114//6 202//6
f 68//6 111//6 202//6 203//6
f 88//6 68//6 203//6 119//6
f 85//6 41//6 123//6 122//6
f 113//6 85//6 122//6 119//6
f 41//6 116//6 203//6 123//6
f 116//6 113//6 119//6 203//6
f 117//6 53//6 126//6 122//6
f 118//6 117//6 122//6 123//6
f 76//6 118//6 123//6 205//6
f 53//6 76//6 205//6 126//6
f 121//6 26//6 130//6 126//6
f 26//6 55//6 200//6 130//6
f 55//6 124//6 205//6 200//6
f 124//6 121//6 126//6 205//6
f 125//6 54//6 135//6 130//6
f 127//6 125//6 130//6 200//6
f 75//6 127//6 200//6 136//6
f 54//6 75//6 136//6 135//6
f 19//6 35//6 134//6 133//6
f 129//6 19//6 133//6 135//6
f 35//6 132//6 136//6 134//6
f 132//6 129//6 135//6 136//6
f 156//6 153//6 154//6 155//6
f 164//6 161//6 162//6 163//6
f 140//6 139//6 138//6 137//6
f 148//6 145//6 146//6 147//6
f 150//6 149//6 151//6 152//6
f 143//6 141//6 142//6 144//6
f 166//6 165//6 167//6 168//6
f 159//6 157//6 158//6 160//6
f 118//3 76//3 156//3 155//3
f 54//1 125//1 162//1 161//1
f 89//1 107//1 142//1 141//1
f 76//2 53//2 153//2 156//2
f 125//4 127//4 163//4 162//4
f 67//2 89//2 141//2 143//2
f 127//3 75//3 164//3 163//3
f 108//3 67//3 143//3 144//3
f 41//2 85//2 149//2 150//2
f 75//2 54//2 161//2 164//2
f 107//4 108//4 144//4 142//4
f 85//1 113//1 151//1 149//1
f 116//3 41//3 150//3 152//3
f 26//1 121//1 158//1 157//1
f 87//4 45//4 137//4 138//4
f 113//4 116//4 152//4 151//4
f 55//2 26//2 157//2 159//2
f 86//1 87//1 138//1 139//1
f 124//3 55//3 159//3 160//3
f 45//3 69//3 140//3 137//3
f 35//2 19//2 165//2 166//2
f 88//1 109//1 146//1 145//1
f 121//4 124//4 160//4 158//4
f 69//2 86//2 139//2 140//2
f 13//6 39//6 196//6 197//6
f 22//6 50//6 198//6 233//6
f 57//6 174//6 253//6 252//6
f 60//6 27//6 256//6 175//6
f 62//6 28//6 255//6 254//6
f 28//6 64//6 231//6 255//6
f 39//6 23//6 201//6 196//6
f 50//6 13//6 197//6 198//6
f 27//6 57//6 252//6 256//6
f 23//6 60//6 175//6 201//6
f 174//6 62//6 254//6 253//6
f 64//6 22//6 233//6 231//6
f 188//6 191//6 183//6 181//6
f 184//6 187//6 192//6 185//6
f 186//6 184//6 185//6 194//6
f 182//6 181//6 184//6 186//6
f 181//6 183//6 187//6 184//6
f 190//6 188//6 181//6 182//6
f 193//6 189//6 188//6 190//6
f 189//6 195//6 191//6 188//6
f 27//2 60//2 189//2 193//2
f 62//3 174//3 182//3 186//3
f 39//1 13//1 183//1 191//1
f 13//1 50//1 187//1 183//1
f 169//6 170//6 197//6 196//6
f 171//6 172//6 233//6 198//6
f 131//6 180//6 201//6 200//6
f 172//6 115//6 202//6 233//6
f 180//6 169//6 196//6 201//6
f 170//6 171//6 198//6 197//6
f 115//6 120//6 203//6 202//6
f 120//6 204//6 123//6 203//6
f 204//6 128//6 205//6 123//6
f 128//6 131//6 200//6 205//6
f 214//2 213//2 223//2 224//2
f 209//3 207//3 217//3 219//3
f 210//1 206//1 216//1 220//1
f 212//3 209//3 219//3 222//3
f 128//4 204//4 206//4 210//4
f 171//4 170//4 207//4 209//4
f 180//4 131//4 213//4 214//4
f 131//4 128//4 210//4 213//4
f 120//4 115//4 215//4 208//4
f 115//4 172//4 212//4 215//4
f 219//6 218//6 225//6 222//6
f 217//6 216//6 218//6 219//6
f 221//6 220//6 216//6 217//6
f 224//6 223//6 220//6 221//6
f 213//1 210//1 220//1 223//1
f 208//1 215//1 225//1 218//1
f 215//4 212//4 222//4 225//4
f 207//3 211//3 221//3 217//3
f 206//1 208//1 218//1 216//1
f 211//3 214//3 224//3 221//3
f 37//6 12//6 227//6 226//6
f 12//6 38//6 228//6 227//6
f 61//6 21//6 230//6 229//6
f 179//6 178//6 255//6 231//6
f 21//6 37//6 226//6 230//6
f 38//6 199//6 233//6 228//6
f 178//6 61//6 229//6 255//6
f 199//6 179//6 231//6 233//6
f 234//6 238//6 239//6 235//6
f 237//6 234//6 235//6 240//6
f 241//6 236//6 234//6 237//6
f 236//6 242//6 238//6 234//6
f 179//2 199//2 242//2 236//2
f 199//1 38//1 238//1 242//1
f 178//2 179//2 236//2 241//2
f 38//1 12//1 239//1 238//1
f 251//6 245//6 246//6 249//6
f 247//6 251//6 249//6 248//6
f 244//6 243//6 251//6 247//6
f 243//6 250//6 245//6 251//6
f 15//2 43//2 243//2 244//2
f 43//2 10//2 250//2 243//2
f 175//4 256//4 248//4 249//4
f 256//3 58//3 247//3 248//3
f 24//6 173//6 252//6 253//6
f 232//6 177//6 254//6 255//6
f 173//6 176//6 256//6 252//6
f 176//6 59//6 257//6 256//6
f 177//6 24//6 253//6 254//6
f 63//6 232//6 255//6 258//6
f 70//6 63//6 258//6 259//6
f 40//6 70//6 259//6 260//6
f 73//6 40//6 260//6 261//6
f 59//6 73//6 261//6 257//6
f 267//6 266//6 262//6 263//6
f 265//6 264//6 268//6 271//6
f 263//6 262//6 264//6 265//6
f 270//6 269//6 266//6 267//6
f 73//3 59//3 270//3 267//3
f 63//3 70//3 265//3 271//3
f 59//2 176//2 269//2 270//2
f 173//1 24//1 262//1 266//1
f 70//3 40//3 263//3 265//3
f 24//1 177//1 264//1 262//1
