# Blender v2.79 (sub 0) OBJ File: ''
# www.blender.org
mtllib toothbrush.mtl
o Cube_Cube.001
v -0.100000 -0.100000 0.100000
v -0.100000 0.100000 0.100000
v -0.100000 -0.100000 -2.100000
v -0.100000 0.100000 -2.150000
v 0.100000 -0.100000 0.100000
v 0.100000 0.100000 0.100000
v 0.100000 -0.100000 -2.100000
v 0.100000 0.100000 -2.150000
v -0.088197 0.100000 -2.625000
v -0.100000 -0.100000 -2.675000
v 0.100000 -0.100000 -2.675000
v 0.088197 0.100000 -2.625000
v 0.200000 0.100000 -2.150000
v 0.250000 -0.100000 -2.100000
v 0.200000 0.100000 -2.569098
v 0.250000 -0.100000 -2.600000
v -0.200000 0.100000 -2.150000
v -0.250000 -0.100000 -2.100000
v -0.200000 0.100000 -2.569098
v -0.250000 -0.100000 -2.600000
v -0.100000 0.100000 -2.100000
v 0.100000 0.100000 -2.100000
v -0.100000 0.100000 -2.675000
v 0.100000 0.100000 -2.675000
v 0.250000 0.100000 -2.100000
v 0.250000 0.100000 -2.600000
v -0.250000 0.100000 -2.600000
v -0.250000 0.100000 -2.100000
v 0.100000 0.350000 -2.150000
v 0.088197 0.350000 -2.625000
v -0.088197 0.350000 -2.625000
v -0.100000 0.350000 -2.150000
v 0.200000 0.350000 -2.150000
v 0.200000 0.350000 -2.569098
v -0.200000 0.350000 -2.569098
v -0.200000 0.350000 -2.150000
vn -1.0000 0.0000 0.0000
vn 0.0000 0.0000 1.0000
vn 1.0000 0.0000 0.0000
vn 0.0000 -1.0000 0.0000
vn 0.0000 1.0000 0.0000
vn 0.0000 0.0000 -1.0000
vn 0.4472 0.0000 -0.8944
vn -0.4472 0.0000 -0.8944
usemtl None
s off
f 1//1 2//1 21//1 3//1
f 4//2 8//2 29//2 32//2
f 7//3 22//3 6//3 5//3
f 5//2 6//2 2//2 1//2
f 3//4 7//4 5//4 1//4
f 22//5 21//5 2//5 6//5
f 10//6 23//6 24//6 11//6
f 10//4 3//4 18//4 20//4
f 13//3 15//3 34//3 33//3
f 7//4 3//4 10//4 11//4
f 25//3 14//3 16//3 26//3
f 7//4 11//4 16//4 14//4
f 22//2 7//2 14//2 25//2
f 11//7 24//7 26//7 16//7
f 18//1 28//1 27//1 20//1
f 3//2 21//2 28//2 18//2
f 23//8 10//8 20//8 27//8
f 15//7 12//7 30//7 34//7
f 8//5 4//5 21//5 22//5
f 9//5 12//5 24//5 23//5
f 15//5 13//5 25//5 26//5
f 13//5 8//5 22//5 25//5
f 12//5 15//5 26//5 24//5
f 17//5 19//5 27//5 28//5
f 4//5 17//5 28//5 21//5
f 19//5 9//5 23//5 27//5
f 32//5 29//5 30//5 31//5
f 30//5 29//5 33//5 34//5
f 32//5 31//5 35//5 36//5
f 9//8 19//8 35//8 31//8
f 19//1 17//1 36//1 35//1
f 8//2 13//2 33//2 29//2
f 12//6 9//6 31//6 30//6
f 17//2 4//2 32//2 36//2
