# Blender v2.79 (sub 0) OBJ File: ''
# www.blender.org
mtllib potion.mtl
o Cylinder_Cylinder.001
v 0.000000 -1.000000 -1.000000
v 0.000000 1.000000 -1.000000
v 0.195090 -1.000000 -0.980785
v 0.195090 1.000000 -0.980785
v 0.382683 -1.000000 -0.923880
v 0.382683 1.000000 -0.923880
v 0.555570 -1.000000 -0.831470
v 0.555570 1.000000 -0.831470
v 0.707107 -1.000000 -0.707107
v 0.707107 1.000000 -0.707107
v 0.831470 -1.000000 -0.555570
v 0.831470 1.000000 -0.555570
v 0.923880 -1.000000 -0.382683
v 0.923880 1.000000 -0.382683
v 0.980785 -1.000000 -0.195090
v 0.980785 1.000000 -0.195090
v 1.000000 -1.000000 -0.000000
v 1.000000 1.000000 -0.000000
v 0.980785 -1.000000 0.195090
v 0.980785 1.000000 0.195090
v 0.923880 -1.000000 0.382683
v 0.923880 1.000000 0.382683
v 0.831470 -1.000000 0.555570
v 0.831470 1.000000 0.555570
v 0.707107 -1.000000 0.707107
v 0.707107 1.000000 0.707107
v 0.555570 -1.000000 0.831470
v 0.555570 1.000000 0.831470
v 0.382683 -1.000000 0.923880
v 0.382683 1.000000 0.923880
v 0.195090 -1.000000 0.980785
v 0.195090 1.000000 0.980785
v -0.000000 -1.000000 1.000000
v -0.000000 1.000000 1.000000
v -0.195091 -1.000000 0.980785
v -0.195091 1.000000 0.980785
v -0.382684 -1.000000 0.923879
v -0.382684 1.000000 0.923879
v -0.555571 -1.000000 0.831469
v -0.555571 1.000000 0.831469
v -0.707107 -1.000000 0.707106
v -0.707107 1.000000 0.707106
v -0.831470 -1.000000 0.555570
v -0.831470 1.000000 0.555570
v -0.923880 -1.000000 0.382683
v -0.923880 1.000000 0.382683
v -0.980785 -1.000000 0.195089
v -0.980785 1.000000 0.195089
v -1.000000 -1.000000 -0.000001
v -1.000000 1.000000 -0.000001
v -0.980785 -1.000000 -0.195091
v -0.980785 1.000000 -0.195091
v -0.923879 -1.000000 -0.382684
v -0.923879 1.000000 -0.382684
v -0.831469 -1.000000 -0.555571
v -0.831469 1.000000 -0.555571
v -0.707106 -1.000000 -0.707108
v -0.707106 1.000000 -0.707108
v -0.555569 -1.000000 -0.831470
v -0.555569 1.000000 -0.831470
v -0.382682 -1.000000 -0.923880
v -0.382682 1.000000 -0.923880
v -0.195089 -1.000000 -0.980786
v -0.195089 1.000000 -0.980786
v 0.195090 3.000000 -0.980785
v -0.000000 3.000000 -1.000000
v 0.382683 3.000000 -0.923880
v 0.555570 3.000000 -0.831470
v 0.707107 3.000000 -0.707107
v 0.831470 3.000000 -0.555570
v 0.923879 3.000000 -0.382683
v 0.980785 3.000000 -0.195090
v 1.000000 3.000000 -0.000000
v 0.980785 3.000000 0.195090
v 0.923879 3.000000 0.382683
v 0.831470 3.000000 0.555570
v 0.707107 3.000000 0.707107
v 0.555570 3.000000 0.831470
v 0.382683 3.000000 0.923880
v 0.195090 3.000000 0.980785
v -0.000000 3.000000 1.000000
v -0.195091 3.000000 0.980785
v -0.382684 3.000000 0.923879
v -0.555571 3.000000 0.831469
v -0.707107 3.000000 0.707106
v -0.831470 3.000000 0.555570
v -0.923880 3.000000 0.382683
v -0.980786 3.000000 0.195089
v -1.000000 3.000000 -0.000001
v -0.980785 3.000000 -0.195091
v -0.923879 3.000000 -0.382684
v -0.831469 3.000000 -0.555571
v -0.707106 3.000000 -0.707108
v -0.555569 3.000000 -0.831470
v -0.382682 3.000000 -0.923880
v -0.195089 3.000000 -0.980786
v 0.097545 3.500000 -0.490393
v -0.000000 3.500000 -0.500000
v 0.191342 3.500000 -0.461940
v 0.277785 3.500000 -0.415735
v 0.353553 3.500000 -0.353554
v 0.415735 3.500000 -0.277785
v 0.461940 3.500000 -0.191342
v 0.490393 3.500000 -0.097545
v 0.500000 3.500000 -0.000000
v 0.490393 3.500000 0.097545
v 0.461940 3.500000 0.191342
v 0.415735 3.500000 0.277785
v 0.353553 3.500000 0.353553
v 0.277785 3.500000 0.415735
v 0.191342 3.500000 0.461940
v 0.097545 3.500000 0.490393
v -0.000000 3.500000 0.500000
v -0.097545 3.500000 0.490392
v -0.191342 3.500000 0.461940
v -0.277785 3.500000 0.415734
v -0.353554 3.500000 0.353553
v -0.415735 3.500000 0.277785
v -0.461940 3.500000 0.191341
v -0.490393 3.500000 0.097545
v -0.500000 3.500000 -0.000001
v -0.490393 3.500000 -0.097546
v -0.461940 3.500000 -0.191342
v -0.415735 3.500000 -0.277786
v -0.353553 3.500000 -0.353554
v -0.277785 3.500000 -0.415735
v -0.191341 3.500000 -0.461940
v -0.097544 3.500000 -0.490393
v 0.097545 4.500000 -0.490393
v 0.000000 4.500000 -0.500000
v 0.191342 4.500000 -0.461940
v 0.277785 4.500000 -0.415735
v 0.353553 4.500000 -0.353554
v 0.415735 4.500000 -0.277785
v 0.461940 4.500000 -0.191342
v 0.490393 4.500000 -0.097545
v 0.500000 4.500000 -0.000000
v 0.490393 4.500000 0.097545
v 0.461940 4.500000 0.191342
v 0.415735 4.500000 0.277785
v 0.353553 4.500000 0.353553
v 0.277785 4.500000 0.415735
v 0.191342 4.500000 0.461940
v 0.097545 4.500000 0.490393
v -0.000000 4.500000 0.500000
v -0.097545 4.500000 0.490392
v -0.191342 4.500000 0.461940
v -0.277785 4.500000 0.415734
v -0.353554 4.500000 0.353553
v -0.415735 4.500000 0.277785
v -0.461940 4.500000 0.191341
v -0.490393 4.500000 0.097545
v -0.500000 4.500000 -0.000001
v -0.490393 4.500000 -0.097546
v -0.461940 4.500000 -0.191342
v -0.415734 4.500000 -0.277786
v -0.353553 4.500000 -0.353554
v -0.277785 4.500000 -0.415735
v -0.191341 4.500000 -0.461940
v -0.097544 4.500000 -0.490393
v 0.000000 -1.200000 -0.800000
v 0.156072 -1.200000 -0.784628
v 0.306147 -1.200000 -0.739104
v 0.444456 -1.200000 -0.665176
v 0.565685 -1.200000 -0.565686
v 0.665176 -1.200000 -0.444456
v 0.739104 -1.200000 -0.306147
v 0.784628 -1.200000 -0.156072
v 0.800000 -1.200000 -0.000000
v 0.784628 -1.200000 0.156072
v 0.739104 -1.200000 0.306147
v 0.665176 -1.200000 0.444456
v 0.565685 -1.200000 0.565685
v 0.444456 -1.200000 0.665176
v 0.306147 -1.200000 0.739104
v 0.156072 -1.200000 0.784628
v -0.000000 -1.200000 0.800000
v -0.156073 -1.200000 0.784628
v -0.306147 -1.200000 0.739103
v -0.444457 -1.200000 0.665175
v -0.565686 -1.200000 0.565685
v -0.665176 -1.200000 0.444456
v -0.739104 -1.200000 0.306146
v -0.784628 -1.200000 0.156072
v -0.800000 -1.200000 -0.000001
v -0.784628 -1.200000 -0.156073
v -0.739103 -1.200000 -0.306148
v -0.665175 -1.200000 -0.444457
v -0.565685 -1.200000 -0.565686
v -0.444455 -1.200000 -0.665176
v -0.306146 -1.200000 -0.739104
v -0.156071 -1.200000 -0.784629
v 0.087791 4.600000 -0.441354
v 0.000000 4.600000 -0.450000
v 0.172208 4.600000 -0.415746
v 0.250007 4.600000 -0.374161
v 0.318198 4.600000 -0.318198
v 0.374161 4.600000 -0.250007
v 0.415746 4.600000 -0.172208
v 0.441353 4.600000 -0.087791
v 0.450000 4.600000 -0.000000
v 0.441353 4.600000 0.087790
v 0.415746 4.600000 0.172207
v 0.374161 4.600000 0.250006
v 0.318198 4.600000 0.318198
v 0.250007 4.600000 0.374161
v 0.172208 4.600000 0.415746
v 0.087791 4.600000 0.441353
v -0.000000 4.600000 0.450000
v -0.087791 4.600000 0.441353
v -0.172208 4.600000 0.415746
v -0.250007 4.600000 0.374161
v -0.318198 4.600000 0.318198
v -0.374161 4.600000 0.250006
v -0.415746 4.600000 0.172207
v -0.441353 4.600000 0.087790
v -0.450000 4.600000 -0.000001
v -0.441353 4.600000 -0.087791
v -0.415746 4.600000 -0.172208
v -0.374161 4.600000 -0.250007
v -0.318198 4.600000 -0.318199
v -0.250006 4.600000 -0.374162
v -0.172207 4.600000 -0.415746
v -0.087790 4.600000 -0.441354
vn 0.0980 0.0000 -0.9952
vn 0.2903 0.0000 -0.9569
vn 0.4714 0.0000 -0.8819
vn 0.6344 0.0000 -0.7730
vn 0.7730 0.0000 -0.6344
vn 0.8819 0.0000 -0.4714
vn 0.9569 0.0000 -0.2903
vn 0.9952 0.0000 -0.0980
vn 0.9952 0.0000 0.0980
vn 0.9569 0.0000 0.2903
vn 0.8819 0.0000 0.4714
vn 0.7730 0.0000 0.6344
vn 0.6344 0.0000 0.7730
vn 0.4714 0.0000 0.8819
vn 0.2903 0.0000 0.9569
vn 0.0980 0.0000 0.9952
vn -0.0980 0.0000 0.9952
vn -0.2903 0.0000 0.9569
vn -0.4714 0.0000 0.8819
vn -0.6344 0.0000 0.7730
vn -0.7730 0.0000 0.6344
vn -0.8819 0.0000 0.4714
vn -0.9569 0.0000 0.2903
vn -0.9952 0.0000 0.0980
vn -0.9952 0.0000 -0.0980
vn -0.9569 0.0000 -0.2903
vn -0.8819 0.0000 -0.4714
vn -0.7730 0.0000 -0.6344
vn -0.6344 0.0000 -0.7730
vn -0.4714 0.0000 -0.8819
vn -0.2903 0.0000 -0.9569
vn -0.0980 0.0000 -0.9952
vn 0.2058 -0.7054 -0.6783
vn 0.5479 0.7054 0.4497
vn -0.6783 0.7054 -0.2058
vn 0.4497 0.7054 0.5479
vn -0.6251 0.7054 -0.3341
vn 0.3341 0.7054 0.6251
vn 0.0695 0.7054 -0.7054
vn -0.5479 0.7054 -0.4497
vn 0.2058 0.7054 0.6783
vn 0.2058 0.7054 -0.6783
vn -0.4497 0.7054 -0.5479
vn 0.0695 0.7054 0.7054
vn 0.3341 0.7054 -0.6251
vn -0.3341 0.7054 -0.6251
vn -0.0695 0.7054 0.7054
vn 0.4497 0.7054 -0.5479
vn -0.2058 0.7054 -0.6783
vn -0.2058 0.7054 0.6783
vn 0.5479 0.7054 -0.4497
vn -0.0695 0.7054 -0.7054
vn -0.3341 0.7054 0.6251
vn 0.6251 0.7054 -0.3341
vn -0.4497 0.7054 0.5479
vn 0.6783 0.7054 -0.2058
vn -0.5479 0.7054 0.4497
vn 0.7054 0.7054 -0.0695
vn -0.6251 0.7054 0.3341
vn 0.7054 0.7054 0.0695
vn -0.6783 0.7054 0.2058
vn 0.6783 0.7054 0.2058
vn -0.7054 0.7054 0.0695
vn 0.6251 0.7054 0.3341
vn -0.7054 0.7054 -0.0695
vn 0.0878 0.4455 0.8910
vn 0.0000 -1.0000 0.0000
vn 0.6251 -0.7054 0.3341
vn -0.4497 -0.7054 0.5479
vn -0.4497 -0.7054 -0.5479
vn 0.6783 -0.7054 -0.2058
vn 0.0695 -0.7054 0.7054
vn -0.7054 -0.7054 -0.0695
vn 0.3341 -0.7054 -0.6251
vn 0.5479 -0.7054 0.4497
vn -0.5479 -0.7054 0.4497
vn -0.3341 -0.7054 -0.6251
vn 0.7054 -0.7054 -0.0695
vn -0.0695 -0.7054 0.7054
vn -0.6783 -0.7054 -0.2058
vn 0.4497 -0.7054 -0.5479
vn 0.4497 -0.7054 0.5479
vn -0.6251 -0.7054 0.3341
vn -0.2058 -0.7054 -0.6783
vn 0.7054 -0.7054 0.0695
vn -0.2058 -0.7054 0.6783
vn -0.6251 -0.7054 -0.3341
vn 0.5479 -0.7054 -0.4497
vn 0.3341 -0.7054 0.6251
vn -0.6783 -0.7054 0.2058
vn 0.0695 -0.7054 -0.7054
vn -0.0695 -0.7054 -0.7054
vn 0.6783 -0.7054 0.2058
vn -0.3341 -0.7054 0.6251
vn -0.5479 -0.7054 -0.4497
vn 0.6251 -0.7054 -0.3341
vn 0.2058 -0.7054 0.6783
vn -0.7054 -0.7054 0.0695
vn 0.0000 1.0000 -0.0000
vn 0.4220 0.4455 -0.7896
vn -0.4220 0.4455 -0.7896
vn -0.0878 0.4455 0.8910
vn 0.5680 0.4455 -0.6921
vn -0.2599 0.4455 -0.8567
vn -0.2599 0.4455 0.8567
vn 0.6921 0.4455 -0.5680
vn -0.0878 0.4455 -0.8910
vn -0.4220 0.4455 0.7896
vn 0.7896 0.4455 -0.4220
vn -0.5680 0.4455 0.6921
vn 0.8567 0.4455 -0.2599
vn -0.6921 0.4455 0.5680
vn 0.8910 0.4455 -0.0878
vn -0.7896 0.4455 0.4220
vn 0.8910 0.4455 0.0878
vn -0.8567 0.4455 0.2599
vn 0.8567 0.4455 0.2599
vn -0.8910 0.4455 0.0878
vn 0.7896 0.4455 0.4220
vn -0.8910 0.4455 -0.0878
vn 0.6921 0.4455 0.5680
vn -0.8567 0.4455 -0.2599
vn 0.5680 0.4455 0.6921
vn -0.7896 0.4455 -0.4220
vn 0.4220 0.4455 0.7896
vn 0.0878 0.4455 -0.8910
vn -0.6921 0.4455 -0.5680
vn 0.2599 0.4455 0.8567
vn 0.2599 0.4455 -0.8567
vn -0.5680 0.4455 -0.6921
usemtl Material.002
s off
f 1//1 2//1 4//1 3//1
f 3//2 4//2 6//2 5//2
f 5//3 6//3 8//3 7//3
f 7//4 8//4 10//4 9//4
f 9//5 10//5 12//5 11//5
f 11//6 12//6 14//6 13//6
f 13//7 14//7 16//7 15//7
f 15//8 16//8 18//8 17//8
f 17//9 18//9 20//9 19//9
f 19//10 20//10 22//10 21//10
f 21//11 22//11 24//11 23//11
f 23//12 24//12 26//12 25//12
f 25//13 26//13 28//13 27//13
f 27//14 28//14 30//14 29//14
f 29//15 30//15 32//15 31//15
f 31//16 32//16 34//16 33//16
f 33//17 34//17 36//17 35//17
f 35//18 36//18 38//18 37//18
f 37//19 38//19 40//19 39//19
f 39//20 40//20 42//20 41//20
f 41//21 42//21 44//21 43//21
f 43//22 44//22 46//22 45//22
f 45//23 46//23 48//23 47//23
f 47//24 48//24 50//24 49//24
f 49//25 50//25 52//25 51//25
f 51//26 52//26 54//26 53//26
f 53//27 54//27 56//27 55//27
f 55//28 56//28 58//28 57//28
f 57//29 58//29 60//29 59//29
f 59//30 60//30 62//30 61//30
f 56//27 54//27 91//27 92//27
f 61//31 62//31 64//31 63//31
f 63//32 64//32 2//32 1//32
f 3//33 5//33 163//33 162//33
f 77//34 76//34 108//34 109//34
f 12//5 10//5 69//5 70//5
f 30//14 28//14 78//14 79//14
f 48//23 46//23 87//23 88//23
f 4//1 2//1 66//1 65//1
f 2//32 64//32 96//32 66//32
f 22//10 20//10 74//10 75//10
f 40//19 38//19 83//19 84//19
f 58//28 56//28 92//28 93//28
f 14//6 12//6 70//6 71//6
f 32//15 30//15 79//15 80//15
f 50//24 48//24 88//24 89//24
f 6//2 4//2 65//2 67//2
f 24//11 22//11 75//11 76//11
f 42//20 40//20 84//20 85//20
f 60//29 58//29 93//29 94//29
f 16//7 14//7 71//7 72//7
f 34//16 32//16 80//16 81//16
f 52//25 50//25 89//25 90//25
f 8//3 6//3 67//3 68//3
f 26//12 24//12 76//12 77//12
f 44//21 42//21 85//21 86//21
f 62//30 60//30 94//30 95//30
f 18//8 16//8 72//8 73//8
f 36//17 34//17 81//17 82//17
f 54//26 52//26 90//26 91//26
f 10//4 8//4 68//4 69//4
f 28//13 26//13 77//13 78//13
f 46//22 44//22 86//22 87//22
f 64//31 62//31 95//31 96//31
f 20//9 18//9 73//9 74//9
f 38//18 36//18 82//18 83//18
f 112//15 111//15 143//15 144//15
f 91//35 90//35 122//35 123//35
f 78//36 77//36 109//36 110//36
f 92//37 91//37 123//37 124//37
f 79//38 78//38 110//38 111//38
f 65//39 66//39 98//39 97//39
f 93//40 92//40 124//40 125//40
f 80//41 79//41 111//41 112//41
f 67//42 65//42 97//42 99//42
f 94//43 93//43 125//43 126//43
f 81//44 80//44 112//44 113//44
f 68//45 67//45 99//45 100//45
f 95//46 94//46 126//46 127//46
f 82//47 81//47 113//47 114//47
f 69//48 68//48 100//48 101//48
f 96//49 95//49 127//49 128//49
f 83//50 82//50 114//50 115//50
f 70//51 69//51 101//51 102//51
f 66//52 96//52 128//52 98//52
f 84//53 83//53 115//53 116//53
f 71//54 70//54 102//54 103//54
f 85//55 84//55 116//55 117//55
f 72//56 71//56 103//56 104//56
f 86//57 85//57 117//57 118//57
f 73//58 72//58 104//58 105//58
f 87//59 86//59 118//59 119//59
f 74//60 73//60 105//60 106//60
f 88//61 87//61 119//61 120//61
f 75//62 74//62 106//62 107//62
f 89//63 88//63 120//63 121//63
f 76//64 75//64 107//64 108//64
f 90//65 89//65 121//65 122//65
f 145//66 144//66 208//66 209//66
f 99//2 97//2 129//2 131//2
f 126//29 125//29 157//29 158//29
f 113//16 112//16 144//16 145//16
f 100//3 99//3 131//3 132//3
f 127//30 126//30 158//30 159//30
f 114//17 113//17 145//17 146//17
f 101//4 100//4 132//4 133//4
f 128//31 127//31 159//31 160//31
f 115//18 114//18 146//18 147//18
f 102//5 101//5 133//5 134//5
f 98//32 128//32 160//32 130//32
f 116//19 115//19 147//19 148//19
f 103//6 102//6 134//6 135//6
f 117//20 116//20 148//20 149//20
f 104//7 103//7 135//7 136//7
f 118//21 117//21 149//21 150//21
f 105//8 104//8 136//8 137//8
f 119//22 118//22 150//22 151//22
f 106//9 105//9 137//9 138//9
f 120//23 119//23 151//23 152//23
f 107//10 106//10 138//10 139//10
f 121//24 120//24 152//24 153//24
f 108//11 107//11 139//11 140//11
f 122//25 121//25 153//25 154//25
f 109//12 108//12 140//12 141//12
f 123//26 122//26 154//26 155//26
f 110//13 109//13 141//13 142//13
f 124//27 123//27 155//27 156//27
f 111//14 110//14 142//14 143//14
f 97//1 98//1 130//1 129//1
f 125//28 124//28 156//28 157//28
f 161//67 162//67 163//67 164//67 165//67 166//67 167//67 168//67 169//67 170//67 171//67 172//67 173//67 174//67 175//67 176//67 177//67 178//67 179//67 180//67 181//67 182//67 183//67 184//67 185//67 186//67 187//67 188//67 189//67 190//67 191//67 192//67
f 21//68 23//68 172//68 171//68
f 39//69 41//69 181//69 180//69
f 57//70 59//70 190//70 189//70
f 13//71 15//71 168//71 167//71
f 31//72 33//72 177//72 176//72
f 49//73 51//73 186//73 185//73
f 5//74 7//74 164//74 163//74
f 23//75 25//75 173//75 172//75
f 41//76 43//76 182//76 181//76
f 59//77 61//77 191//77 190//77
f 15//78 17//78 169//78 168//78
f 33//79 35//79 178//79 177//79
f 51//80 53//80 187//80 186//80
f 7//81 9//81 165//81 164//81
f 25//82 27//82 174//82 173//82
f 43//83 45//83 183//83 182//83
f 61//84 63//84 192//84 191//84
f 17//85 19//85 170//85 169//85
f 35//86 37//86 179//86 178//86
f 53//87 55//87 188//87 187//87
f 9//88 11//88 166//88 165//88
f 27//89 29//89 175//89 174//89
f 45//90 47//90 184//90 183//90
f 1//91 3//91 162//91 161//91
f 63//92 1//92 161//92 192//92
f 19//93 21//93 171//93 170//93
f 37//94 39//94 180//94 179//94
f 55//95 57//95 189//95 188//95
f 11//96 13//96 167//96 166//96
f 29//97 31//97 176//97 175//97
f 47//98 49//98 185//98 184//98
f 193//99 194//99 224//99 223//99 222//99 221//99 220//99 219//99 218//99 217//99 216//99 215//99 214//99 213//99 212//99 211//99 210//99 209//99 208//99 207//99 206//99 205//99 204//99 203//99 202//99 201//99 200//99 199//99 198//99 197//99 196//99 195//99
f 132//100 131//100 195//100 196//100
f 159//101 158//101 222//101 223//101
f 146//102 145//102 209//102 210//102
f 133//103 132//103 196//103 197//103
f 160//104 159//104 223//104 224//104
f 147//105 146//105 210//105 211//105
f 134//106 133//106 197//106 198//106
f 130//107 160//107 224//107 194//107
f 148//108 147//108 211//108 212//108
f 135//109 134//109 198//109 199//109
f 149//110 148//110 212//110 213//110
f 136//111 135//111 199//111 200//111
f 150//112 149//112 213//112 214//112
f 137//113 136//113 200//113 201//113
f 151//114 150//114 214//114 215//114
f 138//115 137//115 201//115 202//115
f 152//116 151//116 215//116 216//116
f 139//117 138//117 202//117 203//117
f 153//118 152//118 216//118 217//118
f 140//119 139//119 203//119 204//119
f 154//120 153//120 217//120 218//120
f 141//121 140//121 204//121 205//121
f 155//122 154//122 218//122 219//122
f 142//123 141//123 205//123 206//123
f 156//124 155//124 219//124 220//124
f 143//125 142//125 206//125 207//125
f 129//126 130//126 194//126 193//126
f 157//127 156//127 220//127 221//127
f 144//128 143//128 207//128 208//128
f 131//129 129//129 193//129 195//129
f 158//130 157//130 221//130 222//130
