# Blender v2.79 (sub 0) OBJ File: ''
# www.blender.org
mtllib book.mtl
o Cube_Cube.001
v -0.400125 -0.600000 0.050000
v -0.400000 0.600000 0.050000
v -0.400125 -0.600000 -0.050000
v -0.400000 0.600000 -0.050000
v 0.500000 -0.597322 0.050875
v 0.500000 0.600000 0.050000
v 0.500000 -0.597322 -0.050875
v 0.500000 0.600000 -0.050000
v -0.500000 0.600000 0.100000
v -0.500000 0.600000 -0.100000
v 0.500000 0.601406 -0.050875
v 0.500000 0.601406 0.050875
v 0.500000 0.600000 -0.100000
v 0.499875 -0.600000 -0.050000
v 0.499875 -0.600000 0.050000
v 0.500000 0.600000 0.100000
v -0.500000 -0.600000 -0.100000
v -0.500000 -0.600000 0.100000
v 0.500000 -0.600000 -0.100000
v 0.500000 -0.600000 0.100000
v 0.444478 -0.543239 -0.046285
v 0.444478 0.547323 -0.046285
v 0.444478 0.547323 0.046285
v 0.444478 -0.543239 0.046285
v -0.344720 -0.544478 -0.043844
v 0.444470 -0.544478 -0.043844
v 0.444470 -0.544478 0.043844
v -0.344720 -0.544478 0.043844
v 0.444317 0.544478 -0.043813
v -0.344317 0.544478 -0.043813
v -0.344317 0.544478 0.043813
v 0.444317 0.544478 0.043813
vn -1.0000 0.0000 0.0000
vn 0.0000 0.0000 -1.0000
vn 0.0000 0.0000 1.0000
vn 0.0000 1.0000 0.0000
vn 1.0000 0.0000 0.0000
vn 0.0000 -1.0000 0.0000
vn 0.0824 0.0000 0.9966
vn 0.0824 0.0000 -0.9966
vn 0.0000 -0.1102 0.9939
vn 0.0000 -0.1102 -0.9939
vn 0.7079 -0.7064 0.0000
vn 0.0000 0.1107 0.9938
vn 0.7061 0.7081 0.0000
vn 0.0000 0.1107 -0.9938
usemtl None
s off
f 18//1 9//1 10//1 17//1
f 17//2 10//2 13//2 19//2
f 20//3 16//3 9//3 18//3
f 2//4 4//4 10//4 9//4
f 4//4 8//4 13//4 10//4
f 8//3 6//3 16//3 13//3
f 6//4 2//4 9//4 16//4
f 11//5 7//5 19//5 13//5
f 7//5 5//5 20//5 19//5
f 12//1 11//1 13//1 16//1
f 5//5 12//5 16//5 20//5
f 3//6 1//6 18//6 17//6
f 14//6 3//6 17//6 19//6
f 15//6 14//6 19//6 20//6
f 1//6 15//6 20//6 18//6
f 21//5 22//5 23//5 24//5
f 11//7 22//7 21//7 7//7
f 5//8 24//8 23//8 12//8
f 25//6 26//6 27//6 28//6
f 14//9 26//9 25//9 3//9
f 1//10 28//10 27//10 15//10
f 3//11 25//11 28//11 1//11
f 29//4 30//4 31//4 32//4
f 4//12 30//12 29//12 8//12
f 2//13 31//13 30//13 4//13
f 6//14 32//14 31//14 2//14
