# Blender v2.79 (sub 0) OBJ File: ''
# www.blender.org
mtllib cassette.mtl
o Cube_Cube.001
v -0.100000 -0.200000 0.300000
v -0.100000 0.200000 0.300000
v -0.100000 -0.200000 -0.300000
v -0.100000 0.200000 -0.300000
v 0.100000 -0.157983 0.257983
v 0.100000 0.098562 0.257983
v 0.100000 -0.157983 -0.257983
v 0.100000 0.098562 -0.257983
v 0.100000 0.023322 -0.098765
v -0.100000 0.058427 -0.122221
v 0.100000 0.080920 -0.240341
v -0.100000 0.100000 -0.200000
v 0.100000 0.109754 -0.199039
v -0.100000 0.109754 -0.199039
v 0.100000 0.119134 -0.196194
v -0.100000 0.119134 -0.196194
v 0.100000 0.146194 -0.130866
v -0.100000 0.146194 -0.130866
v 0.100000 0.141574 -0.122222
v -0.100000 0.141574 -0.122222
v 0.100000 0.149039 -0.140246
v -0.100000 0.149039 -0.140246
v 0.100000 0.135355 -0.114645
v -0.100000 0.135355 -0.114645
v 0.100000 0.109755 -0.100961
v -0.100000 0.109755 -0.100961
v 0.100000 0.057983 -0.061918
v -0.100000 0.100000 -0.100000
v 0.100000 0.119134 -0.103806
v -0.100000 0.119134 -0.103806
v 0.100000 0.009552 -0.167991
v -0.100000 0.050961 -0.159755
v 0.100000 0.048765 -0.226678
v -0.100000 0.072221 -0.191573
v 0.100000 0.007780 -0.150000
v -0.100000 0.050000 -0.150000
v 0.100000 0.014800 -0.185291
v -0.100000 0.053806 -0.169134
v 0.100000 0.082009 -0.059552
v -0.100000 0.090245 -0.100961
v 0.100000 0.135355 -0.185355
v -0.100000 0.135355 -0.185355
v 0.100000 0.127778 -0.191574
v -0.100000 0.127778 -0.191574
v 0.100000 0.141573 -0.177779
v -0.100000 0.141573 -0.177779
v 0.100000 0.009552 -0.132009
v -0.100000 0.050961 -0.140245
v 0.100000 0.048765 -0.073322
v -0.100000 0.072221 -0.108427
v 0.100000 0.034790 -0.084790
v -0.100000 0.064645 -0.114645
v 0.100000 0.014800 -0.114709
v -0.100000 0.053806 -0.130866
v 0.100000 0.150000 -0.150000
v -0.100000 0.150000 -0.150000
v 0.100000 0.127779 -0.108427
v -0.100000 0.127779 -0.108427
v 0.100000 0.149039 -0.159755
v -0.100000 0.149039 -0.159755
v 0.100000 0.034790 -0.215210
v -0.100000 0.064645 -0.185355
v 0.100000 0.064709 -0.064800
v -0.100000 0.080866 -0.103806
v 0.100000 0.023322 -0.201235
v -0.100000 0.058427 -0.177778
v 0.100000 0.146194 -0.169134
v -0.100000 0.146194 -0.169134
v 0.100000 0.064709 -0.235200
v -0.100000 0.080866 -0.196194
v 0.100000 0.082009 -0.240448
v -0.100000 0.090245 -0.199039
v -0.100000 0.058427 0.177778
v 0.100000 0.023322 0.201235
v -0.100000 0.100000 0.100000
v 0.100000 0.057983 0.061918
v -0.100000 0.109754 0.100961
v 0.100000 0.109754 0.100961
v -0.100000 0.119134 0.103806
v 0.100000 0.119134 0.103806
v -0.100000 0.146194 0.169134
v 0.100000 0.146194 0.169134
v -0.100000 0.141574 0.177778
v 0.100000 0.141574 0.177778
v -0.100000 0.149039 0.159754
v 0.100000 0.149039 0.159754
v -0.100000 0.135355 0.185355
v 0.100000 0.135355 0.185355
v -0.100000 0.109755 0.199039
v 0.100000 0.109755 0.199039
v -0.100000 0.100000 0.200000
v 0.100000 0.080920 0.240341
v -0.100000 0.119134 0.196194
v 0.100000 0.119134 0.196194
v -0.100000 0.050961 0.140245
v 0.100000 0.009552 0.132009
v -0.100000 0.072221 0.108427
v 0.100000 0.048765 0.073322
v -0.100000 0.050000 0.150000
v 0.100000 0.007780 0.150000
v -0.100000 0.053806 0.130866
v 0.100000 0.014800 0.114709
v -0.100000 0.090246 0.199039
v 0.100000 0.082009 0.240448
v -0.100000 0.135355 0.114645
v 0.100000 0.135355 0.114645
v -0.100000 0.127778 0.108426
v 0.100000 0.127778 0.108426
v -0.100000 0.141573 0.122221
v 0.100000 0.141573 0.122221
v -0.100000 0.050961 0.159754
v 0.100000 0.009552 0.167991
v -0.100000 0.072221 0.191573
v 0.100000 0.048765 0.226678
v -0.100000 0.064645 0.185355
v 0.100000 0.034790 0.215210
v -0.100000 0.053806 0.169134
v 0.100000 0.014800 0.185291
v -0.100000 0.150000 0.150000
v 0.100000 0.150000 0.150000
v -0.100000 0.127779 0.191573
v 0.100000 0.127779 0.191573
v -0.100000 0.149039 0.140245
v 0.100000 0.149039 0.140245
v -0.100000 0.064645 0.114645
v 0.100000 0.034790 0.084790
v -0.100000 0.080866 0.196194
v 0.100000 0.064709 0.235200
v -0.100000 0.058427 0.122221
v 0.100000 0.023322 0.098765
v -0.100000 0.146194 0.130866
v 0.100000 0.146194 0.130866
v -0.100000 0.080866 0.103806
v 0.100000 0.064709 0.064800
v -0.100000 0.090245 0.100961
v 0.100000 0.082009 0.059552
v 0.100000 0.200000 -0.300000
v 0.100000 -0.200000 -0.300000
v 0.100000 -0.200000 0.300000
v 0.100000 0.200000 0.300000
v 0.100000 0.058427 -0.122221
v 0.100000 0.053806 -0.130866
v 0.100000 0.050961 -0.159755
v 0.100000 0.053806 -0.169134
v 0.100000 0.072221 -0.191573
v 0.100000 0.080866 -0.196194
v 0.100000 0.050000 -0.150000
v 0.100000 0.058427 -0.177779
v 0.100000 0.100000 -0.100000
v 0.100000 0.090245 -0.100961
v 0.100000 0.050961 -0.140245
v 0.100000 0.072221 -0.108427
v 0.100000 0.064645 -0.114645
v 0.100000 0.064645 -0.185355
v 0.100000 0.080866 -0.103806
v 0.100000 0.090245 -0.199039
v 0.100000 0.100000 -0.200000
v 0.100000 0.058427 0.177779
v 0.100000 0.053806 0.169134
v 0.100000 0.050961 0.140245
v 0.100000 0.053806 0.130866
v 0.100000 0.072221 0.108427
v 0.100000 0.080866 0.103806
v 0.100000 0.050000 0.150000
v 0.100000 0.058427 0.122221
v 0.100000 0.100000 0.200000
v 0.100000 0.090245 0.199039
v 0.100000 0.050961 0.159755
v 0.100000 0.072221 0.191573
v 0.100000 0.064645 0.185355
v 0.100000 0.064645 0.114645
v 0.100000 0.080866 0.196194
v 0.100000 0.090245 0.100961
v 0.100000 0.100000 0.100000
v 0.110000 0.098562 -0.257983
v 0.110000 -0.157983 -0.257983
v 0.110000 -0.157983 0.257983
v 0.110000 0.098562 0.257983
v 0.110000 0.023322 -0.098765
v 0.110000 0.014800 -0.114709
v 0.110000 0.009552 -0.167991
v 0.110000 0.014800 -0.185291
v 0.110000 0.048765 -0.226678
v 0.110000 0.064709 -0.235200
v 0.110000 0.007780 -0.150000
v 0.110000 0.023322 -0.201235
v 0.110000 0.057983 -0.061918
v 0.110000 0.082009 -0.059552
v 0.110000 0.009552 -0.132009
v 0.110000 0.048765 -0.073322
v 0.110000 0.034790 -0.084790
v 0.110000 0.034790 -0.215210
v 0.110000 0.064709 -0.064800
v 0.110000 0.082009 -0.240448
v 0.110000 0.080920 -0.240341
v 0.110000 0.023322 0.201235
v 0.110000 0.014800 0.185291
v 0.110000 0.009552 0.132009
v 0.110000 0.014800 0.114709
v 0.110000 0.048765 0.073322
v 0.110000 0.064709 0.064800
v 0.110000 0.007780 0.150000
v 0.110000 0.023322 0.098765
v 0.110000 0.080920 0.240341
v 0.110000 0.082009 0.240448
v 0.110000 0.009552 0.167991
v 0.110000 0.048765 0.226678
v 0.110000 0.034790 0.215210
v 0.110000 0.034790 0.084790
v 0.110000 0.064709 0.235200
v 0.110000 0.082009 0.059552
v 0.110000 0.057983 0.061918
vn -1.0000 0.0000 0.0000
vn 0.0000 0.0000 -1.0000
vn 0.0000 0.2903 0.9569
vn 0.0000 0.0000 1.0000
vn 0.0000 -1.0000 0.0000
vn 0.0000 1.0000 0.0000
vn 0.0000 0.9952 -0.0980
vn 0.0000 0.7730 -0.6344
vn 0.0000 0.8819 -0.4714
vn 0.0000 -0.9952 0.0980
vn 0.0000 0.9569 0.2903
vn 0.0000 0.9952 0.0980
vn 0.0000 0.7730 0.6344
vn 0.0000 -0.0980 0.9952
vn 0.0000 -0.0980 -0.9952
vn 0.0000 -0.8819 0.4714
vn 0.0000 0.0980 -0.9952
vn 0.0000 -0.2903 0.9569
vn 0.0000 0.6344 0.7730
vn -0.0000 -0.4714 -0.8819
vn 0.0000 0.4714 0.8819
vn 0.0000 0.6344 -0.7730
vn 0.0000 -0.6344 0.7730
vn 0.0000 -0.9569 0.2903
vn -0.0000 0.4714 -0.8819
vn -0.0000 -0.6344 -0.7730
vn 0.0000 -0.8819 -0.4714
vn -0.0000 0.0980 0.9952
vn 0.0000 0.8819 0.4714
vn -0.0000 -0.9952 -0.0980
vn 0.0000 0.9569 -0.2903
vn -0.0000 -0.2903 -0.9569
vn 0.0000 -0.4714 0.8819
vn 0.0000 0.2903 -0.9569
vn 0.0000 -0.9569 -0.2903
vn 0.0000 -0.7730 0.6344
vn -0.0000 -0.7730 -0.6344
vn 1.0000 -0.0000 0.0000
vn 0.0000 0.7071 -0.7071
vn 0.0000 0.7071 0.7071
usemtl None
s off
f 1//1 2//1 91//1 103//1 127//1 113//1 115//1 73//1 117//1 111//1 99//1 95//1 101//1 129//1 125//1 97//1 133//1 135//1 75//1 28//1 40//1 64//1 50//1 52//1 10//1 54//1 48//1 36//1 32//1 38//1 66//1 62//1 34//1 70//1 72//1 12//1 4//1 3//1
f 3//2 4//2 137//2 138//2
f 136//3 134//3 201//3 211//3
f 139//4 140//4 2//4 1//4
f 3//5 138//5 139//5 1//5
f 137//6 4//6 2//6 140//6
f 48//7 151//7 147//7 36//7
f 4//1 12//1 14//1 16//1 44//1 42//1 46//1 68//1 60//1 56//1 22//1 18//1 20//1 24//1 58//1 30//1 26//1 28//1 2//1
f 52//8 153//8 141//8 10//8
f 10//9 141//9 142//9 54//9
f 60//10 59//10 55//10 56//10
f 32//11 143//11 144//11 38//11
f 36//12 147//12 143//12 32//12
f 66//13 148//13 154//13 62//13
f 12//14 157//14 13//14 14//14
f 26//15 25//15 149//15 28//15
f 46//16 45//16 67//16 68//16
f 28//17 149//17 150//17 40//17
f 14//18 13//18 15//18 16//18
f 62//19 154//19 145//19 34//19
f 58//20 57//20 29//20 30//20
f 34//21 145//21 146//21 70//21
f 50//22 152//22 153//22 52//22
f 44//23 43//23 41//23 42//23
f 68//24 67//24 59//24 60//24
f 64//25 155//25 152//25 50//25
f 24//26 23//26 57//26 58//26
f 18//27 17//27 19//27 20//27
f 72//28 156//28 157//28 12//28
f 38//29 144//29 148//29 66//29
f 56//30 55//30 21//30 22//30
f 54//31 142//31 151//31 48//31
f 30//32 29//32 25//32 26//32
f 16//33 15//33 43//33 44//33
f 70//3 146//3 156//3 72//3
f 40//34 150//34 155//34 64//34
f 22//35 21//35 17//35 18//35
f 42//36 41//36 45//36 46//36
f 20//37 19//37 23//37 24//37
f 140//38 149//38 25//38 29//38 57//38 23//38 19//38 17//38 21//38 55//38 59//38 67//38 45//38 41//38 43//38 15//38 13//38 157//38 137//38
f 111//7 168//7 164//7 99//7
f 28//1 75//1 77//1 79//1 107//1 105//1 109//1 131//1 123//1 119//1 85//1 81//1 83//1 87//1 121//1 93//1 89//1 91//1 2//1
f 115//8 170//8 158//8 73//8
f 73//9 158//9 159//9 117//9
f 123//10 124//10 120//10 119//10
f 95//11 160//11 161//11 101//11
f 99//12 164//12 160//12 95//12
f 129//13 165//13 171//13 125//13
f 75//14 174//14 78//14 77//14
f 89//15 90//15 166//15 91//15
f 109//16 110//16 132//16 131//16
f 91//17 166//17 167//17 103//17
f 77//18 78//18 80//18 79//18
f 125//19 171//19 162//19 97//19
f 121//20 122//20 94//20 93//20
f 97//21 162//21 163//21 133//21
f 113//22 169//22 170//22 115//22
f 107//23 108//23 106//23 105//23
f 131//24 132//24 124//24 123//24
f 127//25 172//25 169//25 113//25
f 87//26 88//26 122//26 121//26
f 81//27 82//27 84//27 83//27
f 135//28 173//28 174//28 75//28
f 101//29 161//29 165//29 129//29
f 119//30 120//30 86//30 85//30
f 117//31 159//31 168//31 111//31
f 93//32 94//32 90//32 89//32
f 79//33 80//33 108//33 107//33
f 133//3 163//3 173//3 135//3
f 103//34 167//34 172//34 127//34
f 85//35 86//35 82//35 81//35
f 105//36 106//36 110//36 109//36
f 83//37 84//37 88//37 87//37
f 140//38 166//38 90//38 94//38 122//38 88//38 84//38 82//38 86//38 120//38 124//38 132//38 110//38 106//38 108//38 80//38 78//38 174//38 149//38
f 8//38 7//38 138//38 137//38
f 7//38 5//38 139//38 138//38
f 5//38 6//38 140//38 139//38
f 9//38 53//38 142//38 141//38
f 31//38 37//38 144//38 143//38
f 33//38 69//38 146//38 145//38
f 35//38 31//38 143//38 147//38
f 37//38 65//38 148//38 144//38
f 27//1 39//1 150//1 149//1
f 47//38 35//38 147//38 151//38
f 49//38 51//38 153//38 152//38
f 53//38 47//38 151//38 142//38
f 51//38 9//38 141//38 153//38
f 61//38 33//38 145//38 154//38
f 63//38 49//38 152//38 155//38
f 65//38 61//38 154//38 148//38
f 39//38 63//38 155//38 150//38
f 69//38 71//38 156//38 146//38
f 71//38 11//38 157//38 156//38
f 11//38 8//38 137//38 157//38
f 74//38 118//38 159//38 158//38
f 96//38 102//38 161//38 160//38
f 98//38 134//38 163//38 162//38
f 100//38 96//38 160//38 164//38
f 102//38 130//38 165//38 161//38
f 92//38 104//38 167//38 166//38
f 112//38 100//38 164//38 168//38
f 114//38 116//38 170//38 169//38
f 118//38 112//38 168//38 159//38
f 116//38 74//38 158//38 170//38
f 126//38 98//38 162//38 171//38
f 128//38 114//38 169//38 172//38
f 130//38 126//38 171//38 165//38
f 104//38 128//38 172//38 167//38
f 134//38 136//38 173//38 163//38
f 136//1 76//1 174//1 173//1
f 76//38 27//38 149//38 174//38
f 6//38 92//38 166//38 140//38
f 176//38 175//38 195//38 194//38 184//38 183//38 192//38 186//38 182//38 181//38 185//38 189//38 180//38 179//38 191//38 190//38 193//38 188//38 187//38 212//38 211//38 201//38 200//38 209//38 203//38 199//38 198//38 202//38 206//38 197//38 196//38 208//38 207//38 210//38 205//38 204//38 178//38 177//38
f 102//11 96//11 198//11 199//11
f 39//14 27//14 187//14 188//14
f 76//15 136//15 211//15 212//15
f 134//21 98//21 200//21 201//21
f 35//7 47//7 189//7 185//7
f 27//6 76//6 212//6 187//6
f 96//12 100//12 202//12 198//12
f 51//22 49//22 190//22 191//22
f 92//39 6//39 178//39 204//39
f 130//29 102//29 199//29 203//29
f 47//31 53//31 180//31 189//31
f 104//14 92//14 204//14 205//14
f 9//8 51//8 191//8 179//8
f 100//7 112//7 206//7 202//7
f 33//19 61//19 192//19 183//19
f 7//2 8//2 175//2 176//2
f 116//22 114//22 207//22 208//22
f 49//25 63//25 193//25 190//25
f 5//5 7//5 176//5 177//5
f 112//31 118//31 197//31 206//31
f 61//13 65//13 186//13 192//13
f 6//4 5//4 177//4 178//4
f 74//8 116//8 208//8 196//8
f 63//34 39//34 188//34 193//34
f 53//9 9//9 179//9 180//9
f 98//19 126//19 209//19 200//19
f 71//3 69//3 184//3 194//3
f 37//11 31//11 181//11 182//11
f 114//25 128//25 210//25 207//25
f 11//15 71//15 194//15 195//15
f 69//21 33//21 183//21 184//21
f 126//13 130//13 203//13 209//13
f 8//40 11//40 195//40 175//40
f 31//12 35//12 185//12 181//12
f 128//34 104//34 205//34 210//34
f 118//9 74//9 196//9 197//9
f 65//29 37//29 182//29 186//29
