# Blender v2.79 (sub 0) OBJ File: ''
# www.blender.org
mtllib pencil.mtl
o Cylinder
v 0.000000 -0.050000 -0.010000
v 0.000000 0.050000 -0.010000
v 0.008660 -0.050000 -0.005000
v 0.008660 0.050000 -0.005000
v 0.008660 -0.050000 0.005000
v 0.008660 0.050000 0.005000
v -0.000000 -0.050000 0.010000
v -0.000000 0.050000 0.010000
v -0.008660 -0.050000 0.005000
v -0.008660 0.050000 0.005000
v -0.008660 -0.050000 -0.005000
v -0.008660 0.050000 -0.005000
v 0.000000 -0.050000 -0.010000
v 0.008660 -0.050000 -0.005000
v 0.008660 -0.050000 0.005000
v -0.000000 -0.050000 0.010000
v -0.008660 -0.050000 0.005000
v -0.008660 -0.050000 -0.005000
v 0.000000 -0.070000 0.000000
v 0.000000 -0.070000 0.000000
v 0.000000 -0.070000 0.000000
v 0.000000 -0.070000 0.000000
v 0.000000 -0.070000 0.000000
v 0.000000 -0.070000 0.000000
vn 0.5000 0.0000 -0.8660
vn 1.0000 0.0000 0.0000
vn 0.5000 0.0000 0.8660
vn -0.5000 0.0000 0.8660
vn 0.0000 1.0000 -0.0000
vn -1.0000 0.0000 0.0000
vn -0.5000 0.0000 -0.8660
vn 0.0000 0.0000 1.0000
vn -0.4588 -0.3974 -0.7947
vn -0.4588 -0.3974 0.7947
vn 0.9177 -0.3974 0.0000
vn -0.9177 -0.3974 0.0000
vn 0.4588 -0.3974 0.7947
vn 0.4588 -0.3974 -0.7947
usemtl None
s off
f 1//1 2//1 4//1 3//1
f 3//2 4//2 6//2 5//2
f 5//3 6//3 8//3 7//3
f 7//4 8//4 10//4 9//4
f 4//5 2//5 12//5 10//5 8//5 6//5
f 9//6 10//6 12//6 11//6
f 11//7 12//7 2//7 1//7
f 7//8 9//8 17//8 16//8
f 18//9 13//9 19//9 24//9
f 3//8 5//8 15//8 14//8
f 9//8 11//8 18//8 17//8
f 1//8 3//8 14//8 13//8
f 5//8 7//8 16//8 15//8
f 11//8 1//8 13//8 18//8
f 19//8 20//8 21//8 22//8 23//8 24//8
f 16//10 17//10 23//10 22//10
f 14//11 15//11 21//11 20//11
f 17//12 18//12 24//12 23//12
f 15//13 16//13 22//13 21//13
f 13//14 14//14 20//14 19//14
