# Blender v2.79 (sub 0) OBJ File: ''
# www.blender.org
mtllib rod.mtl
o Cylinder.001
v 0.513766 2.868917 -0.239461
v 0.513766 2.868917 0.260539
v 0.705108 2.830857 -0.239461
v 0.705108 2.830857 0.260539
v 0.867319 2.722470 -0.239461
v 0.867319 2.722470 0.260539
v 0.975706 2.560259 -0.239461
v 0.975706 2.560259 0.260539
v 1.013766 2.368917 -0.239461
v 1.013766 2.368917 0.260539
v 0.975706 2.177575 -0.239461
v 0.975706 2.177575 0.260539
v 0.867319 2.015364 -0.239461
v 0.867319 2.015364 0.260539
v 0.705108 1.906977 -0.239461
v 0.705108 1.906977 0.260539
v 0.513766 1.868917 -0.239461
v 0.513766 1.868917 0.260539
v 0.322424 1.906977 -0.239461
v 0.322424 1.906977 0.260539
v 0.160213 2.015363 -0.239461
v 0.160213 2.015363 0.260539
v 0.051826 2.177575 -0.239461
v 0.051826 2.177575 0.260539
v 0.013766 2.368917 -0.239461
v 0.013766 2.368917 0.260539
v 0.051826 2.560259 -0.239461
v 0.051826 2.560259 0.260539
v 0.160213 2.722471 -0.239461
v 0.160213 2.722471 0.260539
v 0.322424 2.830857 -0.239461
v 0.322424 2.830857 0.260539
vn 0.1951 0.9808 0.0000
vn 0.5556 0.8315 0.0000
vn 0.8315 0.5556 0.0000
vn 0.9808 0.1951 0.0000
vn 0.9808 -0.1951 -0.0000
vn 0.8315 -0.5556 0.0000
vn 0.5556 -0.8315 0.0000
vn 0.1951 -0.9808 0.0000
vn -0.1951 -0.9808 0.0000
vn -0.5556 -0.8315 0.0000
vn -0.8315 -0.5556 0.0000
vn -0.9808 -0.1951 0.0000
vn -0.9808 0.1951 0.0000
vn -0.8315 0.5556 0.0000
vn 0.0000 -0.0000 1.0000
vn -0.5556 0.8315 0.0000
vn -0.1951 0.9808 0.0000
vn 0.0000 0.0000 -1.0000
usemtl None
s off
f 1//1 2//1 4//1 3//1
f 3//2 4//2 6//2 5//2
f 5//3 6//3 8//3 7//3
f 7//4 8//4 10//4 9//4
f 9//5 10//5 12//5 11//5
f 11//6 12//6 14//6 13//6
f 13//7 14//7 16//7 15//7
f 15//8 16//8 18//8 17//8
f 17//9 18//9 20//9 19//9
f 19//10 20//10 22//10 21//10
f 21//11 22//11 24//11 23//11
f 23//12 24//12 26//12 25//12
f 25//13 26//13 28//13 27//13
f 27//14 28//14 30//14 29//14
f 4//15 2//15 32//15 30//15 28//15 26//15 24//15 22//15 20//15 18//15 16//15 14//15 12//15 10//15 8//15 6//15
f 29//16 30//16 32//16 31//16
f 31//17 32//17 2//17 1//17
f 1//18 3//18 5//18 7//18 9//18 11//18 13//18 15//18 17//18 19//18 21//18 23//18 25//18 27//18 29//18 31//18
o Cylinder
v 0.000000 0.000000 -0.090000
v 0.000000 12.000000 -0.090000
v 0.034442 0.000000 -0.083149
v 0.034442 12.000000 -0.083149
v 0.063640 0.000000 -0.063640
v 0.063640 12.000000 -0.063640
v 0.083149 0.000000 -0.034442
v 0.083149 12.000000 -0.034442
v 0.090000 0.000000 0.000000
v 0.090000 12.000000 0.000000
v 0.083149 0.000000 0.034442
v 0.083149 12.000000 0.034442
v 0.063640 0.000000 0.063640
v 0.063640 12.000000 0.063640
v 0.034442 0.000000 0.083149
v 0.034442 12.000000 0.083149
v 0.000000 0.000000 0.090000
v 0.000000 12.000000 0.090000
v -0.034441 0.000000 0.083149
v -0.034441 12.000000 0.083149
v -0.063640 0.000000 0.063640
v -0.063640 12.000000 0.063640
v -0.083149 0.000000 0.034442
v -0.083149 12.000000 0.034442
v -0.090000 0.000000 -0.000000
v -0.090000 12.000000 -0.000000
v -0.083149 0.000000 -0.034442
v -0.083149 12.000000 -0.034442
v -0.063640 0.000000 -0.063640
v -0.063640 12.000000 -0.063640
v -0.034441 0.000000 -0.083149
v -0.034441 12.000000 -0.083149
vn 0.1951 0.0000 -0.9808
vn 0.5556 0.0000 -0.8315
vn 0.8315 0.0000 -0.5556
vn 0.9808 0.0000 -0.1951
vn 0.9808 0.0000 0.1951
vn 0.8315 0.0000 0.5556
vn 0.5556 0.0000 0.8315
vn 0.1951 0.0000 0.9808
vn -0.1951 0.0000 0.9808
vn -0.5556 0.0000 0.8315
vn -0.8315 0.0000 0.5556
vn -0.9808 0.0000 0.1951
vn -0.9808 0.0000 -0.1951
vn -0.8315 0.0000 -0.5556
vn 0.0000 1.0000 -0.0000
vn -0.5556 0.0000 -0.8315
vn -0.1951 0.0000 -0.9808
vn 0.0000 -1.0000 0.0000
usemtl None
s off
f 33//19 34//19 36//19 35//19
f 35//20 36//20 38//20 37//20
f 37//21 38//21 40//21 39//21
f 39//22 40//22 42//22 41//22
f 41//23 42//23 44//23 43//23
f 43//24 44//24 46//24 45//24
f 45//25 46//25 48//25 47//25
f 47//26 48//26 50//26 49//26
f 49//27 50//27 52//27 51//27
f 51//28 52//28 54//28 53//28
f 53//29 54//29 56//29 55//29
f 55//30 56//30 58//30 57//30
f 57//31 58//31 60//31 59//31
f 59//32 60//32 62//32 61//32
f 36//33 34//33 64//33 62//33 60//33 58//33 56//33 54//33 52//33 50//33 48//33 46//33 44//33 42//33 40//33 38//33
f 61//34 62//34 64//34 63//34
f 63//35 64//35 34//35 33//35
f 33//36 35//36 37//36 39//36 41//36 43//36 45//36 47//36 49//36 51//36 53//36 55//36 57//36 59//36 61//36 63//36
